<?xml version="1.0" encoding="UTF-8"?>
<svg version="1.1" xmlns="http://www.w3.org/2000/svg" width="330" height="329">
<path d="M0 0 C2.79059648 0.02148115 5.5786201 0.00003108 8.36914062 -0.02539062 C25.04786738 -0.05257689 40.9276296 2.68807424 56.72851562 8.08398438 C57.72157715 8.42059082 58.71463867 8.75719727 59.73779297 9.10400391 C75.79447151 14.77601986 90.39287466 23.06648549 103.79101562 33.52148438 C104.72816406 34.23691406 105.6653125 34.95234375 106.63085938 35.68945312 C118.64166613 45.14990206 128.98315936 56.04836308 137.79101562 68.52148438 C138.52707031 69.55144531 139.263125 70.58140625 140.02148438 71.64257812 C151.98928576 89.28714194 159.94829714 108.8156888 164.79101562 129.52148438 C164.98163574 130.33552734 165.17225586 131.14957031 165.36865234 131.98828125 C174.64866853 174.20395068 164.79871754 219.11946836 142.18310547 255.36767578 C135.77331584 265.28475121 127.9125999 273.99382088 119.79101562 282.52148438 C118.79328125 283.59849609 118.79328125 283.59849609 117.77539062 284.69726562 C101.02104206 302.26117305 78.32947251 314.35953772 55.60351562 322.20898438 C54.8277417 322.48258789 54.05196777 322.75619141 53.25268555 323.03808594 C37.63573857 328.20262264 22.02914596 330.19262963 5.63696289 330.04296875 C2.85734647 330.02151394 0.08032076 330.04292408 -2.69921875 330.06835938 C-19.61072458 330.09627767 -36.10364906 327.65348076 -52.02148438 321.77148438 C-52.97740479 321.42714355 -53.9333252 321.08280273 -54.91821289 320.72802734 C-63.36157886 317.6104114 -71.38534963 313.96622768 -79.20898438 309.52148438 C-79.86946777 309.14797852 -80.52995117 308.77447266 -81.21044922 308.38964844 C-118.27729471 287.09460829 -145.85781225 250.6254703 -157.20898438 209.52148438 C-160.01437369 198.21511303 -162.31205411 186.8637507 -162.48242188 175.18554688 C-162.49499527 174.39730026 -162.50756866 173.60905365 -162.52052307 172.79692078 C-162.7553334 154.51388256 -162.32241839 137.22977415 -157.20898438 119.52148438 C-156.9626123 118.65120605 -156.71624023 117.78092773 -156.46240234 116.88427734 C-145.02891338 77.85118639 -117.26683133 42.87584673 -82.27148438 22.27148438 C-79.92690802 20.99310677 -77.58308459 19.74133289 -75.20898438 18.52148438 C-74.56380859 18.18665039 -73.91863281 17.85181641 -73.25390625 17.50683594 C-50.29554468 5.74039942 -25.78400205 -0.2348928 0 0 Z " fill="#4AA3DE" transform="translate(162.208984375,-0.521484375)"/>
<path d="M0 0 C21.94996126 2.39740116 43.83738589 5.26736053 65.72998047 8.13354492 C70.8411326 8.8026859 75.95270427 9.46855818 81.06440353 10.13350487 C120.49418115 15.26525632 120.49418115 15.26525632 137.33883667 17.79856873 C143.43919636 18.70142396 149.42892623 19.25404697 155.59689331 19.44981384 C158 20 158 20 159.29690552 21.82252502 C166.79129031 45.03254268 162.11785751 73.65512647 156.5625 96.75 C156.27306519 97.96478027 156.27306519 97.96478027 155.9777832 99.20410156 C154.79438673 103.83348295 153.21900566 107.89230609 150.98217773 112.11254883 C150.07637425 113.85323158 149.29708646 115.65820296 148.53125 117.46484375 C142.86778083 130.53994476 135.28027159 142.23368276 126 153 C125.56123535 153.51175781 125.1224707 154.02351562 124.67041016 154.55078125 C119.5128423 160.51560384 114.18416772 166.10205685 108 171 C106.96746094 171.81984375 105.93492187 172.6396875 104.87109375 173.484375 C89.40140298 185.44456883 72.92553848 193.85122551 54.17626953 199.35693359 C52.40856604 199.87927272 50.65321072 200.4432686 48.90234375 201.01953125 C40.21367854 203.74565032 31.02744595 204.20483637 22 205 C21.87882812 203.94941406 21.75765625 202.89882813 21.6328125 201.81640625 C21.46377973 200.3984091 21.29449529 198.98044194 21.125 197.5625 C21.04636719 196.87478516 20.96773437 196.18707031 20.88671875 195.47851562 C20.45548033 191.91250564 19.90134319 188.46534538 19.04296875 184.9765625 C17.60964073 178.76702853 17.07921453 172.43355174 16.42550659 166.10531616 C15.04022779 152.76035122 13.48984605 139.43775091 11.75601196 126.13363647 C11.54704095 124.52876235 11.33992612 122.92364521 11.13485718 121.31826782 C10.12828647 113.45847179 9.00666501 105.67620581 7.3828125 97.91796875 C6.3062066 92.74730519 5.60884186 87.89790759 5.4375 82.625 C5.29773119 78.53358574 5.00035714 74.73916514 4.0390625 70.76953125 C2.7305208 65.24785055 2.34631495 59.71125611 1.9375 54.0625 C1.7807395 52.01165809 1.62319543 49.96087591 1.46484375 47.91015625 C1.39418701 46.92208984 1.32353027 45.93402344 1.25073242 44.91601562 C1.08494101 42.98786314 0.86960467 41.06326947 0.6027832 39.14648438 C0.4812085 38.26412109 0.35963379 37.38175781 0.234375 36.47265625 C0.1115918 35.69543213 -0.01119141 34.91820801 -0.13769531 34.11743164 C0.05034991 31.22573626 1.20680787 30.28094268 3.3125 28.375 C6.54696133 26 6.54696133 26 9 26 C9.33 19.73 9.66 13.46 10 7 C6.7 6.67 3.4 6.34 0 6 C0 4.02 0 2.04 0 0 Z " fill="#FDFEFE" transform="translate(151,110)"/>
<path d="M0 0 C0.60392578 0.5038623 1.20785156 1.00772461 1.83007812 1.52685547 C14.54721969 12.17338552 14.54721969 12.17338552 19 17 C19 17.66 19 18.32 19 19 C9.44696656 21.60274007 -0.20668599 23.42071317 -9.9392395 25.18807983 C-14.7033488 26.05382464 -19.46494803 26.93315299 -24.2265625 27.8125 C-25.20301224 27.99266159 -26.17946198 28.17282318 -27.1855011 28.35844421 C-37.32424095 30.2348117 -47.44458523 32.20234629 -57.5625 34.1875 C-59.27188834 34.52239455 -60.98127958 34.85727428 -62.69067383 35.19213867 C-65.94412295 35.82983139 -69.19745131 36.46813562 -72.45068359 37.10693359 C-79.09095699 38.41068024 -85.73201389 39.71013188 -92.375 41 C-93.43275635 41.20778076 -94.4905127 41.41556152 -95.58032227 41.62963867 C-97.00622681 41.90578003 -97.00622681 41.90578003 -98.4609375 42.1875 C-99.27353027 42.34605469 -100.08612305 42.50460938 -100.92333984 42.66796875 C-103 43 -103 43 -106 43 C-106 42.34 -106 41.68 -106 41 C-104.45742558 39.81093222 -102.91052255 38.62515576 -101.3125 37.51171875 C-99.79902131 36.01825582 -99.79902131 36.01825582 -99.5078125 33.59765625 C-100.20720277 29.90642983 -101.89966277 28.97532148 -104.875 26.75 C-112.91178539 20.528971 -120.33663195 13.83265881 -127.40625 6.53125 C-129.96688915 4.07102807 -131.794891 3.82051243 -135.25 3.75 C-136.37148437 3.71132812 -136.37148437 3.71132812 -137.515625 3.671875 C-143.2259535 4.42606933 -146.87009175 7.54186384 -150.6875 11.625 C-155.02220939 16.10332928 -159.57344839 20.0593593 -164.4375 23.94921875 C-167.69481555 26.55606427 -170.8475577 29.26788334 -174 32 C-173.96219702 34.37233611 -173.96219702 34.37233611 -173 37 C-171.04402816 38.39712274 -169.04563599 39.73779907 -167 41 C-167 41.66 -167 42.32 -167 43 C-176.06587083 41.57036814 -184.84671606 39.28487266 -193.6875 36.875 C-195.08257138 36.49828692 -196.47775307 36.12198215 -197.87304688 35.74609375 C-201.24997978 34.83542161 -204.6253966 33.91927199 -208 33 C-208.58398438 31.1418457 -208.58398438 31.1418457 -209 29 C-192.44371963 1.03721251 -157.19333454 -19.42183243 -126.6640625 -27.4296875 C-82.37763153 -38.53685818 -35.27297612 -29.63057028 0 0 Z " fill="#FCFDFE" transform="translate(256,47)"/>
<path d="M0 0 C0 1.65 0 3.3 0 5 C-4.455 5.495 -4.455 5.495 -9 6 C-8.88562349 8.72998676 -8.75888594 11.4584582 -8.625 14.1875 C-8.5940625 14.95642578 -8.563125 15.72535156 -8.53125 16.51757812 C-8.31744081 20.66903985 -8.10237992 24.30662987 -6 28 C-2.97017694 29.37189827 -2.97017694 29.37189827 0 30 C0.05491533 31.68712082 0.09319918 33.37478525 0.125 35.0625 C0.14820312 36.00222656 0.17140625 36.94195312 0.1953125 37.91015625 C0 41 0 41 -0.94262695 44.16674805 C-2.07476254 48.27103361 -2.64517427 52.20301652 -3.11328125 56.421875 C-3.20776047 57.22626511 -3.30223969 58.03065521 -3.39958191 58.85942078 C-3.602481 60.58780859 -3.80303972 62.31647248 -4.00146484 64.04537964 C-4.5349462 68.68429102 -5.08839896 73.32078754 -5.64453125 77.95703125 C-5.75713287 78.8961586 -5.8697345 79.83528595 -5.98574829 80.8028717 C-7.02385867 89.36828129 -8.23746689 97.90277116 -9.5 106.4375 C-12.42188897 126.23963708 -14.71255837 146.11617456 -17 166 C-21.05760886 164.12261512 -23.93251078 161.45130871 -27.0625 158.3125 C-27.9131604 157.46051025 -27.9131604 157.46051025 -28.78100586 156.59130859 C-49 135.81670811 -49 135.81670811 -49 127 C-49.66 127 -50.32 127 -51 127 C-61.69970125 104.45849455 -61.69970125 104.45849455 -63.43359375 95.6796875 C-64.33300681 91.4245333 -65.46716368 87.22372396 -66.59179688 83.02294922 C-69.1498387 73.10930257 -69.23826302 63.19852014 -69.25 53 C-69.25200912 51.96886581 -69.25200912 51.96886581 -69.25405884 50.91690063 C-69.24797934 36.5229467 -67.25121815 23.77951077 -63 10 C-50.68744217 7.56894909 -38.34480347 5.31267044 -25.98062134 3.16094971 C-24.41725487 2.88821275 -22.85424029 2.6134505 -21.29159546 2.33660889 C-19.06257147 1.94243321 -16.83230621 1.55618369 -14.6015625 1.171875 C-13.30557129 0.9459668 -12.00958008 0.72005859 -10.67431641 0.48730469 C-7.06746497 0.00894751 -3.63347467 -0.08797759 0 0 Z " fill="#FCFDFE" transform="translate(88,111)"/>
<path d="M0 0 C2.05046146 3.07569219 2.30121801 4.10636914 2.5625 7.640625 C2.63726562 8.54683594 2.71203125 9.45304687 2.7890625 10.38671875 C2.85867187 11.33160156 2.92828125 12.27648437 3 13.25 C3.46598132 19.4717136 4.26613782 24.98696597 6 31 C6.35604509 33.97454528 6.50192696 36.94528661 6.625 39.9375 C6.66367188 40.71673828 6.70234375 41.49597656 6.7421875 42.29882812 C6.83544127 44.19887379 6.91875962 46.09940278 7 48 C10.3 48 13.6 48 17 48 C17 48.33 17 48.66 17 49 C11.555 49.495 11.555 49.495 6 50 C5.87882813 48.94941406 5.75765625 47.89882813 5.6328125 46.81640625 C5.46377973 45.3984091 5.29449529 43.98044194 5.125 42.5625 C5.04636719 41.87478516 4.96773437 41.18707031 4.88671875 40.47851562 C4.44732321 36.84505252 3.87116849 33.33709787 3 29.78125 C1.63753548 23.89949958 1.29805706 17.94699087 0.875 11.9375 C0.78863281 10.78572266 0.70226562 9.63394531 0.61328125 8.44726562 C0.40300407 5.63188777 0.19871636 2.81621341 0 0 Z " fill="#BDDDF3" transform="translate(167,265)"/>
<path d="M0 0 C0.66 0.33 1.32 0.66 2 1 C0.58474822 2.58459815 -0.8322642 4.16762391 -2.25 5.75 C-3.03890625 6.63171875 -3.8278125 7.5134375 -4.640625 8.421875 C-6.70592672 10.67866165 -8.81735064 12.85739926 -11 15 C-11.99 14.67 -12.98 14.34 -14 14 C-9.38 9.38 -4.76 4.76 0 0 Z " fill="#DFEFF9" transform="translate(71,50)"/>
<path d="M0 0 C0.33 0 0.66 0 1 0 C1.05447822 2.52113092 1.09389852 5.0410585 1.125 7.5625 C1.14175781 8.26697266 1.15851563 8.97144531 1.17578125 9.69726562 C1.22022044 14.51891822 0.52768004 18.42297438 -1 23 C-1.33 23 -1.66 23 -2 23 C-1.85865273 20.10388456 -1.7120847 17.2081919 -1.5625 14.3125 C-1.52318359 13.49587891 -1.48386719 12.67925781 -1.44335938 11.83789062 C-1.23101997 7.80344189 -0.95552078 3.94252691 0 0 Z " fill="#86C1E9" transform="translate(83,177)"/>
<path d="M0 0 C0 2.31 0 4.62 0 7 C-0.66 7 -1.32 7 -2 7 C-2 5.35 -2 3.7 -2 2 C-4.31 2 -6.62 2 -9 2 C-5.86501708 0.14223235 -3.62528568 -0.20140476 0 0 Z " fill="#76BAE6" transform="translate(90,109)"/>
</svg>
